<svg xmlns="http://www.w3.org/2000/svg" viewBox="0 0 511.999 511.999" style="enable-background:new 0 0 511.999 511.999" xml:space="preserve"><path style="fill:#ffeb99" d="M370.607 197.524c0 33.025-13.073 62.995-34.317 85.008-17.249 17.869-27.375 41.003-29.724 65.452l-1.036-.107H190.381l-.331.032c-1.997-24.288-12.518-47.369-29.703-65.035-20.988-21.586-34.082-50.883-34.627-83.246-1.143-67.801 53.735-124.067 121.547-124.548 68.035-.48 123.34 54.525 123.34 122.444z"/><path style="fill:#4bcdb2" d="m305.53 347.877 1.036.107a116.307 116.307 0 0 0-.481 14.964c.021.641.032 1.282.032 1.923 0 32.918-27.46 59.438-60.72 57.89-29.853-1.378-53.991-25.719-55.155-55.583a56.226 56.226 0 0 1 .032-5.372c.246-4.657.171-9.303-.224-13.896l.331-.032 115.149-.001z"/><path style="fill:#ffcd00" d="M244.218 51.199a8.01 8.01 0 0 1-8.011-8.011V8.011a8.01 8.01 0 1 1 16.022 0v35.178a8.01 8.01 0 0 1-8.011 8.01zM132.806 96.864c-2.05 0-4.1-.782-5.664-2.345l-24.874-24.874a8.012 8.012 0 0 1 11.328-11.329L138.47 83.19a8.012 8.012 0 0 1-5.664 13.674zM86.317 207.935H51.139a8.01 8.01 0 1 1 0-16.022h35.178a8.01 8.01 0 1 1 0 16.022zM107.107 343.705a8.012 8.012 0 0 1-5.664-13.674l24.874-24.874a8.012 8.012 0 0 1 11.328 11.329l-24.874 24.874a7.989 7.989 0 0 1-5.664 2.345zM379.338 343.705c-2.05 0-4.1-.782-5.665-2.345l-24.874-24.874a8.012 8.012 0 0 1 11.329-11.329l24.874 24.873a8.012 8.012 0 0 1-5.664 13.675zM436.13 209.099h-35.178c-4.425 0-8.011-3.586-8.011-8.011s3.586-8.011 8.011-8.011h35.178c4.425 0 8.011 3.586 8.011 8.011s-3.586 8.011-8.011 8.011zM355.288 97.688a8.012 8.012 0 0 1-5.665-13.674l24.874-24.874a8.012 8.012 0 0 1 11.329 11.329l-24.874 24.874a7.994 7.994 0 0 1-5.664 2.345z"/><path style="fill:#eebf00" d="M287.122 202.811c-16.914 0-30.674 13.76-30.674 30.674v47.992c0 5.709-4.644 10.352-10.353 10.352s-10.353-4.644-10.353-10.352v-47.992c0-16.914-13.76-30.674-30.674-30.674h-1.612a8.01 8.01 0 1 0 0 16.022h1.612c8.079 0 14.653 6.573 14.653 14.653v47.992c0 11.776 7.758 21.772 18.432 25.149v34.163a8.01 8.01 0 1 0 16.022 0v-34.21c10.602-3.42 18.294-13.378 18.294-25.103v-47.992c0-8.079 6.573-14.653 14.653-14.653 4.425 0 8.011-3.586 8.011-8.011s-3.586-8.01-8.011-8.01z"/><path style="fill:#ffe477" d="M338.827 205.965a8.01 8.01 0 0 1-8.011-8.011c0-12.382-2.61-24.311-7.76-35.457a8.011 8.011 0 0 1 14.544-6.72c6.129 13.268 9.236 27.458 9.236 42.176a8.009 8.009 0 0 1-8.009 8.012zM314.546 143.429a7.99 7.99 0 0 1-5.912-2.603c-16.006-17.493-38.775-27.525-62.469-27.525a8.01 8.01 0 1 1 0-16.022c28.179 0 55.256 11.929 74.29 32.73a8.012 8.012 0 0 1-.502 11.318 7.98 7.98 0 0 1-5.407 2.102z"/><path style="fill:#fff5cc" d="M176.637 197.858a8.01 8.01 0 0 1-6.93-12.016l10.696-18.527c3.277-5.676 9.147-9.065 15.702-9.065s12.425 3.389 15.702 9.065l6.33 10.965c.503.872 1.271 1.054 1.826 1.054s1.323-.183 1.826-1.054l6.33-10.965c3.277-5.676 9.147-9.065 15.702-9.065s12.424 3.389 15.702 9.065l6.33 10.965c.503.872 1.271 1.054 1.827 1.054.555 0 1.323-.183 1.826-1.054l5.869-10.168a18.129 18.129 0 0 1 16.099-9.061 18.134 18.134 0 0 1 15.688 9.756l8.264 15.88a8.012 8.012 0 0 1-3.408 10.804 8.014 8.014 0 0 1-10.804-3.408l-8.264-15.879c-.476-.914-1.256-1.123-1.825-1.135-.554-.009-1.358.159-1.873 1.054l-5.869 10.168c-3.278 5.676-9.147 9.065-15.702 9.065s-12.425-3.389-15.702-9.065l-6.33-10.965c-.503-.872-1.271-1.054-1.826-1.054s-1.323.183-1.826 1.054l-6.33 10.965c-3.277 5.676-9.147 9.065-15.702 9.065s-12.424-3.389-15.702-9.065l-6.33-10.965c-.503-.872-1.271-1.054-1.827-1.054-.555 0-1.323.183-1.826 1.054l-10.696 18.527a8.013 8.013 0 0 1-6.947 4.005z"/><path style="fill:#50000f" d="M274.676 377.129a8.01 8.01 0 0 0-8.011-8.011h-39.247a8.01 8.01 0 1 0 0 16.022h39.247a8.01 8.01 0 0 0 8.011-8.011z"/><path style="fill:#50000f" d="m433.695 441.492-54.298-.114c-14.653 0-26.574-11.921-26.574-26.574 0-14.654 11.921-26.575 26.554-26.575h.138c15.492 0 30.06-6.024 41.03-16.97 11.004-10.978 17.065-25.585 17.065-41.129v-14.698c0-4.425-3.586-8.011-8.011-8.011s-8.011 3.586-8.011 8.011v14.698c0 11.258-4.389 21.836-12.358 29.788-7.945 7.928-18.495 12.29-29.734 12.29h-.1c-23.487 0-42.595 19.109-42.595 42.596s19.108 42.595 42.578 42.595l54.298.114c10.572 0 19.174 8.602 19.174 19.174s-8.602 19.174-19.174 19.174H320.52l-29.795.117c-19.166 0-34.757-15.593-34.757-34.758v-6.063c14.585-3.526 25.454-16.679 25.454-32.332 0-.314-.022-.623-.058-.928a66.52 66.52 0 0 0 12.34-9.31c13.168-12.572 20.42-29.52 20.42-47.721 0-.731-.012-1.457-.035-2.18-.927-28.451 9.004-54.94 27.961-74.587 23.58-24.44 36.565-56.605 36.565-90.572 0-35.022-13.686-67.9-38.539-92.577-24.627-24.454-57.234-37.885-91.914-37.885l-.95.003c-34.935.247-67.706 14.243-92.279 39.411-24.592 25.187-37.812 58.318-37.222 93.287.562 33.299 13.664 64.796 36.893 88.69 18.981 19.521 29.064 46.104 27.668 72.933a67.063 67.063 0 0 0-.04 6.101c.896 23.005 13.888 43.184 32.729 54.281a7.959 7.959 0 0 0-.077 1.054c0 15.512 10.672 28.576 25.06 32.241v6.154c0 28 22.78 50.779 50.81 50.779l29.795-.117h113.127c19.407 0 35.195-15.788 35.195-35.195s-15.786-35.195-35.176-35.195zM133.731 199.498c-.517-30.661 11.084-59.72 32.666-81.825 21.562-22.085 50.304-34.366 80.929-34.582.279-.002.554-.003.833-.003 30.42 0 59.028 11.783 80.628 33.231 21.8 21.648 33.807 50.489 33.807 81.209 0 29.795-11.391 58.01-32.074 79.446-16.673 17.28-27.321 39.065-31.034 62.892H197.168c-3.505-23.3-14.299-45.322-31.077-62.578-20.375-20.958-31.869-48.585-32.36-77.79zm64.513 167.369c-.06-1.548-.05-3.11.03-4.644.11-2.115.154-4.227.143-6.337h99.639c-.06 2.427-.059 4.867.02 7.321a50.7 50.7 0 0 1 .027 1.658c0 13.78-5.492 26.613-15.464 36.134-9.965 9.513-23.064 14.409-36.873 13.76-25.648-1.188-46.522-22.225-47.522-47.892zM232 428.809a64.789 64.789 0 0 0 16.195 2.028c5.5 0 10.892-.676 16.095-1.977-2.454 6.538-8.751 11.213-16.135 11.213-7.404-.001-13.715-4.7-16.155-11.264z"/></svg>