<svg xmlns="http://www.w3.org/2000/svg" viewBox="0 0 128 128" style="enable-background:new 0 0 128 128" xml:space="preserve"><path style="fill:#666" d="M96.721 58.994v27.94a5.948 5.948 0 0 1-5.948 5.948H27.429a5.948 5.948 0 0 1-5.948-5.948V57.953c.52.164 1.026.297 1.546.446 11.613 3.242 23.167 6.245 34.72 9.204 1.472.387 3.123.52 4.758.104l34.216-8.713z"/><path style="fill:#ffcc0a" d="M127.962 96.719c-.019-.113-.076-.225-.092-.337-.145-.706-.239-1.38-.397-2.048-.457-1.893-2.035-4.424-1.541-7.222 1.005-5.784-2.561-8.308-5.721-8.308-.249 0-.482.026-.813.207l.001-.34a3.55 3.55 0 0 0 2.645-3.434 3.534 3.534 0 0 0-2.068-3.212V47.07h-2.974v24.953a3.532 3.532 0 0 0-2.072 3.215 3.551 3.551 0 0 0 2.771 3.474l.001.171a6.09 6.09 0 0 0-.939-.078c-3.151 0-6.726 2.524-5.715 8.308.488 2.798-1.093 5.328-1.547 7.222-.161.668-.255 1.342-.397 2.048-.016.112-.072.224-.091.337a3.092 3.092 0 0 0-.035.491c0 .98.454 1.778 1.033 1.778.574 0 1.037-.798 1.037-1.778 0 .98.463 1.778 1.039 1.778.492 0 .904-.586 1.005-1.371 0 0 .041 0 .06.008.113.777.52 1.362 1.014 1.362.457 0 .841-.515.977-1.221.051 0 .082 0 .123.008.129.703.523 1.213.973 1.213.463 0 .838-.496.98-1.194h.117c.148.698.532 1.194.983 1.194a.521.521 0 0 0 .167-.025.497.497 0 0 0 .158.025c.454 0 .851-.496.983-1.194h.123c.145.698.526 1.194.977 1.194.46 0 .835-.51.98-1.213.041-.008.088-.008.123-.008.135.706.52 1.221.97 1.221.501 0 .898-.586 1.011-1.362.022-.008.047-.008.047-.008.126.785.536 1.371 1.024 1.371.57 0 1.049-.798 1.049-1.778 0-.014-.009-.022-.009-.025 0 0 .009 0 .009-.008v.033c0 .98.457 1.778 1.03 1.778.58 0 1.036-.798 1.036-1.778a2.78 2.78 0 0 0-.035-.492z"/><path style="fill:#333" d="m119.591 48.704-22.869 5.829-34.215 8.714c-1.636.416-3.286.283-4.758-.104-11.554-2.959-23.107-5.963-34.72-9.204-.52-.149-1.026-.283-1.546-.446a743.097 743.097 0 0 1-20.119-5.918 1.924 1.924 0 0 1-1.279-1.294 1.93 1.93 0 0 1 1.309-2.409c2.721-.803 5.487-1.695 8.342-2.424 15.36-3.97 30.721-7.97 46.14-11.777a21.608 21.608 0 0 1 4.134-.639c.178 0 .357-.015.535-.015 1.264-.03 2.543.074 3.777.387 18.394 4.61 36.758 9.472 55.404 15.583a1.93 1.93 0 0 1 1.264 1.353 1.942 1.942 0 0 1-1.399 2.364z"/></svg>