<svg xmlns="http://www.w3.org/2000/svg" viewBox="0 0 512 512" style="enable-background:new 0 0 512 512" xml:space="preserve"><path style="fill:#ffeb99" d="m18.609 490.429 40.914-71.219c-3.655 12.991-1.52 25.993 6.975 34.488v.011c8.495 8.495 21.508 10.619 34.499 6.954l-71.23 40.924c-2.059 1.186-3.957 1.887-5.649 2.178 0 0-.022.011-.022 0h-3.331c-4.657-.938-6.221-6.242-2.156-13.336z"/><path style="fill:#ffa5b5" d="M485.121 35.075c14.091 14.091 14.091 37.14 0 51.231l-14.619 14.63-51.242-51.242 14.63-14.619c14.091-14.09 37.14-14.09 51.231 0z"/><path style="fill:#328777" d="m470.502 100.936-12.139 12.139-3.967 3.967c-4.496 4.485-11.837 4.485-16.322 0l-34.919-34.919c-4.485-4.485-4.485-11.827 0-16.322l3.967-3.967 12.139-12.139 51.241 51.241z"/><path style="fill:#4bcdb2" d="M446.234 125.204 131.636 439.802 80.394 388.56 394.992 73.962l8.161 8.161 34.92 34.92z"/><path style="fill:#57eecf" d="m131.636 439.802-6.296 6.296c-7.256 7.256-15.794 12.161-24.343 14.565l7.698-4.42-44.741-44.741-4.431 7.708c2.404-8.549 7.32-17.099 14.576-24.354l6.296-6.296 51.241 51.242z"/><path style="fill:#328777" d="m108.694 456.243-7.698 4.42c-12.991 3.665-26.004 1.542-34.499-6.954v-.011c-8.495-8.495-10.63-21.497-6.975-34.488l4.431-7.708 44.741 44.741z"/><path style="fill:none;stroke:#266659;stroke-width:15;stroke-linecap:round;stroke-linejoin:round;stroke-miterlimit:10" d="M20.765 503.76H24.1M348.7 503.76h60.47M437.1 503.76h30.23M24.096 503.765c0 .011.022 0 .022 0"/><path style="fill:none;stroke:#3eac92;stroke-width:15;stroke-linecap:round;stroke-linejoin:round;stroke-miterlimit:10" d="m401.08 119.11-174.7 174.71M200.1 320.08l-34.16 34.18"/><path style="fill:#ffda44" d="M386.285 37.184a8.072 8.072 0 0 1-5.932-2.587c-10.453-11.276-24.672-17.805-40.037-18.385-15.377-.579-30.036 4.859-41.31 15.312a8.089 8.089 0 0 1-11.428-.431 8.088 8.088 0 0 1 .431-11.428C302.452 6.273 321.267-.679 340.925.052c19.682.743 37.895 9.107 51.286 23.549a8.088 8.088 0 0 1-.431 11.428 8.065 8.065 0 0 1-5.495 2.155z"/><path style="fill:#ffda44" d="M366.366 63.186a8.072 8.072 0 0 1-5.932-2.587c-5.585-6.023-13.18-9.511-21.387-9.82-8.208-.303-16.045 2.595-22.066 8.179a8.089 8.089 0 0 1-11.428-.431 8.088 8.088 0 0 1 .431-11.428c9.19-8.52 21.116-12.962 33.672-12.48 12.524.472 24.114 5.795 32.635 14.984a8.088 8.088 0 0 1-.431 11.428 8.056 8.056 0 0 1-5.494 2.155z"/><path style="fill:#50000f" d="M409.172 495.683h-60.479c-4.467 0-8.086 3.619-8.086 8.086s3.619 8.086 8.086 8.086h60.479c4.467 0 8.086-3.619 8.086-8.086s-3.62-8.086-8.086-8.086zM467.337 495.683h-30.239c-4.467 0-8.086 3.619-8.086 8.086s3.619 8.086 8.086 8.086h30.239a8.086 8.086 0 0 0 0-16.172zM490.842 29.353c-17.282-17.28-45.395-17.278-62.676 0l-26.751 26.752-.01.009-12.133 12.134L74.688 382.833l-.011.01-.01.011-6.283 6.283c-7.958 7.96-13.43 17.299-16.293 26.783L11.6 486.398c-5.658 9.849-3.409 17.625.583 21.616C14.459 510.29 17.965 512 22.385 512c.703 0 1.435-.054 2.183-.146H319.69c4.467 0 8.086-3.619 8.086-8.086s-3.619-8.086-8.086-8.086H56.275l48.037-27.598c9.472-2.867 18.8-8.324 26.749-16.272l329.04-329.04.011-.01 30.732-30.732c17.278-17.28 17.278-45.397-.002-62.677zM131.635 428.365l-39.803-39.804L394.992 85.4l2.445 2.445 34.916 34.916 2.444 2.444-303.162 303.16zm321.022-321.021-.011.01-3.977 3.977c-1.326 1.323-3.561 1.32-4.883-.004L408.871 76.41c-1.325-1.325-1.325-3.563 0-4.889l3.972-3.972 6.416-6.416 39.804 39.804-6.406 6.407zM46.099 482.879l-8.846-8.671 15.504-26.987c1.825 4.523 4.481 8.662 8.018 12.2 3.536 3.536 7.674 6.195 12.194 8.02l-26.87 15.438zm26.111-34.893c-5.476-5.476-7.267-13.766-5.761-22.554l28.316 28.316c-8.787 1.506-17.079-.286-22.555-5.762zm38.907-.758L72.969 409.08a50.922 50.922 0 0 1 6.851-8.508l.576-.576L120.2 439.8l-.576.576a50.872 50.872 0 0 1-8.507 6.852zm368.29-366.635-8.909 8.909-39.804-39.804 8.909-8.909c5.486-5.487 12.693-8.231 19.903-8.231 7.208 0 14.415 2.744 19.902 8.231 10.974 10.974 10.974 28.83-.001 39.804z"/><path style="fill:#50000f" d="M395.361 113.4 220.657 288.103a8.085 8.085 0 0 0 5.718 13.803 8.061 8.061 0 0 0 5.718-2.368l174.703-174.703a8.085 8.085 0 1 0-11.435-11.435zM194.387 314.373l-34.166 34.166a8.085 8.085 0 0 0 5.718 13.802 8.065 8.065 0 0 0 5.718-2.367l34.166-34.166a8.085 8.085 0 1 0-11.436-11.435z"/></svg>